# AST/ASF file generated using VICON BodyLanguage
# -----------------------------------------------
:version 1.10
:name VICON
:units
  mass 1.0
  length 0.45
  angle deg
:documentation
   .ast/.asf automatically generated from VICON data using
   VICON BodyBuilder and BodyLanguage model FoxedUp or BRILLIANT.MOD
:root
   order TX TY TZ RX RY RZ
   axis XYZ
   position 0 0 0  
   orientation 0 0 0 
:bonedata
  begin
     id 1 
     name lhipjoint
     direction 0.621036 -0.695554 0.361275 
     length 2.46325 
     axis 0 0 0  XYZ
  end
  begin
     id 2 
     name lfemur
     direction 0.34202 -0.939693 0  
     length 6.54784  
     axis 0 0 20  XYZ
    dof rx ry rz
    limits (-160.0 20.0)
           (-70.0 70.0)
           (-60.0 70.0)
  end
  begin
     id 3 
     name ltibia
     direction 0.34202 -0.939693 0   
     length 7.84737   
     axis 0 0 20   XYZ
    dof rx
    limits (-10.0 170.0)
  end
  begin
     id 4 
     name lfoot
     direction 0.0790693 -0.217241 0.97291   
     length 2.59747   
     axis -90 7.62852e-016 20   XYZ
    dof rx rz
    limits (-45.0 90.0)
           (-70.0 20.0)
  end
  begin
     id 5 
     name ltoes
     direction 1.53572e-011 -4.21898e-011 1   
     length 1.29919   
     axis -90 7.62852e-016 20   XYZ
    dof rx
    limits (-90.0 20.0)
  end
  begin
     id 6 
     name rhipjoint
     direction -0.602353 -0.708375 0.367935   
     length 2.41867  
     axis 0 0 0  XYZ 
  end
  begin
     id 7 
     name rfemur
     direction -0.34202 -0.939693 0   
     length 6.92065   
     axis 0 0 -20   XYZ
    dof rx ry rz
    limits (-160.0 20.0)
           (-70.0 70.0)
           (-70.0 60.0)
  end
  begin
     id 8 
     name rtibia
     direction -0.34202 -0.939693 0   
     length 7.88883   
     axis 0 0 -20   XYZ
    dof rx
    limits (-10.0 170.0)
 end
 begin
     id 9 
     name rfoot
     direction -0.0768692 -0.211196 0.974416   
     length 2.43714  
     axis -90 -7.62852e-016 -20   XYZ
    dof rx rz
    limits (-45.0 90.0)
           (-20.0 70.0)
  end
  begin
     id 10 
     name rtoes
     direction -1.53575e-011 -4.21933e-011 1   
     length 1.22113   
     axis -90 -7.62852e-016 -20   XYZ
    dof rx
    limits (-90.0 20.0)
  end
  begin
     id 11 
     name lowerback
     direction 0.0197937 0.98943 -0.143655   
     length 2.16931   
     axis 0 0 0   XYZ
    dof rx ry rz
    limits (-20.0 45.0)
           (-30.0 30.0)
           (-30.0 30.0)
  end
  begin
     id 12 
     name upperback
     direction -0.00183968 0.999975 0.00684288   
     length 2.17221   
     axis 0 0 0   XYZ
    dof rx ry rz
    limits (-20.0 45.0)
           (-30.0 30.0)
           (-30.0 30.0)
  end
  begin
     id 13 
     name thorax
     direction -0.00950244 0.997208 0.0740685   
     length 2.22549   
     axis 0 0 0   XYZ
    dof rx ry rz
    limits (-20.0 45.0)
           (-30.0 30.0)
           (-30.0 30.0)
  end
  begin
     id 14 
     name lowerneck
     direction 0.0218238 0.996215 0.0841425   
     length 1.77269   
     axis 0 0 0   XYZ
    dof rx ry rz
    limits (-20.0 45.0)
           (-30.0 30.0)
           (-30.0 30.0)
  end
  begin
     id 15 
     name upperneck
     direction -0.00430652 0.994214 -0.107332   
     length 1.76534   
     axis 0 0 0   XYZ
    dof rx ry rz
    limits (-20.0 45.0)
           (-30.0 30.0)
           (-30.0 30.0)
  end
  begin
     id 16
     name head
     direction -0.00328946 0.998959 -0.0454998  
     length 1.82634  
     axis 0 0 0   XYZ
    dof rx ry rz
    limits (-20.0 45.0)
           (-30.0 30.0)
           (-30.0 30.0)
  end
  begin
     id 17 
     name lclavicle
     direction 0.970962 0.239191 0.00450212  
     length 3.84872  
     axis 0 0 0   XYZ
    dof ry rz
    limits (-20.0 10.0)
           (0.0 20.0)
  end
  begin
     id 18 
     name lhumerus
     direction 1 -4.48966e-011 5.74696e-028   
     length 5.22771   
     axis 180 -30 -90   XYZ
    dof rx ry rz
    limits (-60.0 90.0)
           (-90.0 90.0)
           (-90.0 90.0)
  end
  begin
     id 19
     name lradius
     direction 1 -4.4896e-011 4.25109e-027   
     length 3.45251   
     axis 180 -30 -90   XYZ
    dof rx
    limits (-10.0 170.0)
  end
  begin
     id 20
     name lwrist
     direction 1 -4.48971e-011 1.15382e-027   
     length 1.72626   
     axis -5.52449e-016 90 90   XYZ
    dof ry
    limits (-180.0 0.0)
 end
  begin
     id 21 
     name lhand
     direction 1 -4.49034e-011 2.30765e-027   
     length 0.552119   
     axis -1.47248e-015 90 90   XYZ
    dof rx rz
    limits (-90.0 90.0)
           (-45.0 45.0)
  end
  begin
     id 22 
     name lfingers
     direction 1 -4.48951e-011 4.61529e-027   
     length 0.445133   
     axis -2.94495e-015 90 90   XYZ
    dof rx
    limits (0.0 90.0)
  end
  begin
     id 23
     name lthumb
     direction 0.707107 -6.34991e-011 0.707107   
     length 0.639124   
     axis -90 45 2.85299e-015   XYZ
    dof rx rz
    limits (-45.0 45.0)
           (-45.0 45.0)
  end
  begin
     id 24 
     name rclavicle
     direction -0.97424 0.222511 -0.0366699   
     length 3.73439  
     axis 0 0 0   XYZ 
    dof ry rz
    limits (-10.0 20.0)
           (-20.0 0.0)
  end
  begin
     id 25 
     name rhumerus
     direction -1 -4.48956e-011 -4.97258e-028  
     length 5.2398   
     axis 180 30 90   XYZ
    dof rx ry rz
    limits (-90.0 60.0)
           (-90.0 90.0)
           (-90.0 90.0)
  end
  begin
     id 26 
     name rradius
     direction -1 -4.4897e-011 -1.72611e-027   
     length 3.48042   
     axis 180 30 90   XYZ
    dof rx
    limits (-10.0 170.0)
  end
  begin
     id 27 
     name rwrist
     direction -1 -4.48976e-011 1.15382e-027   
     length 1.74021   
     axis -5.52449e-016 -90 -90   XYZ
    dof ry
    limits (-180.0 0.0)
  end
  begin
     id 28
     name rhand
     direction -1 -4.48963e-011 2.30765e-027   
     length 0.618713   
     axis -1.47248e-015 -90 -90   XYZ
    dof rx rz
    limits (-90.0 90.0)
           (-45.0 45.0)
  end
  begin
     id 29
     name rfingers
     direction -1 -4.4888e-011 4.61529e-027   
     length 0.498823   
     axis -2.94495e-015 -90 -90   XYZ
    dof rx
    limits (0.0 90.0)
  end
  begin
     id 30
     name rthumb
     direction -0.707107 -6.34968e-011 0.707107   
     length 0.716213   
     axis -90 -45 -2.85299e-015   XYZ
    dof rx rz
    limits (-45.0 45.0)
           (-45.0 45.0)
  end
:hierarchy
  begin
    root lhipjoint rhipjoint lowerback
    lhipjoint lfemur
    lfemur ltibia
    ltibia lfoot
    lfoot ltoes
    rhipjoint rfemur
    rfemur rtibia
    rtibia rfoot
    rfoot rtoes
    lowerback upperback
    upperback thorax
    thorax lowerneck lclavicle rclavicle
    lowerneck upperneck
    upperneck head
    lclavicle lhumerus
    lhumerus lradius
    lradius lwrist
    lwrist lhand lthumb
    lhand lfingers
    rclavicle rhumerus
    rhumerus rradius
    rradius rwrist
    rwrist rhand rthumb
    rhand rfingers
  end

#!OML:ASF G:\JayActor3\Patient Classification 1\Patient 1\Session 5\male.ASF
:FULLY-SPECIFIED
:DEGREES
30
root -38.5972 16.9456 -5.19043 -127.03 85.2287 -124.423
lowerback 0.519192 -0.800666 3.51367
upperback 4.16742 -1.06412 -0.00180608
thorax 3.94027 -0.37899 -1.99793
lowerneck -7.88169 -1.46639 0.748203
upperneck 10.6695 -2.33023 2.7254
head 4.51449 -0.927921 0.574558
rclavicle -4.32357e-015 -2.38542e-015
rhumerus -31.2302 -5.52063 -87.1706
rradius 27.9135
rwrist 2.42728
rhand -20.251 -9.13037
rfingers 7.12502
rthumb 6.09745 -39.0226
lclavicle -4.32357e-015 -2.38542e-015
lhumerus -28.998 5.63953 85.232
lradius 23.9754
lwrist 16.6646
lhand -19.8856 23.4463
lfingers 7.12502
lthumb 6.45023 53.3281
rfemur -8.86336 3.03372 24.7754
rtibia 36.2008
rfoot -26.0354 -13.942
rtoes 8.64351
lfemur -0.44225 5.19388 -16.51
ltibia 22.9282
lfoot -18.2798 4.52295
ltoes -7.10579
31
root -38.6004 16.9457 -5.19082 -126.72 85.2218 -124.118
lowerback 0.53307 -0.802857 3.52361
upperback 4.16615 -1.06658 -0.00139817
thorax 3.93081 -0.380049 -2.00291
lowerneck -7.90567 -1.46621 0.754423
upperneck 10.6946 -2.32948 2.70429
head 4.52589 -0.927987 0.566865
rclavicle 3.23025e-015 -3.97569e-016
rhumerus -31.2201 -5.49556 -87.1957
rradius 27.9362
rwrist 2.40867
rhand -20.2454 -9.13643
rfingers 7.12502
rthumb 6.10291 -39.0285
lclavicle 3.23025e-015 -3.97569e-016
lhumerus -28.9627 5.60419 85.2463
lradius 24.0017
lwrist 16.6954
lhand -19.8955 23.5134
lfingers 7.12502
lthumb 6.44071 53.3954
rfemur -8.88286 3.06851 24.801
rtibia 36.1972
rfoot -26.0288 -13.9634
rtoes 8.65762
lfemur -0.485022 5.1914 -16.4924
ltibia 22.9726
lfoot -18.2391 4.54705
ltoes -7.24051
32
root -38.6039 16.9458 -5.19124 -126.453 85.2178 -123.858
lowerback 0.547882 -0.805327 3.52943
upperback 4.1644 -1.06927 -0.00206779
thorax 3.92035 -0.381381 -2.00668
lowerneck -7.93046 -1.46364 0.759043
upperneck 10.7216 -2.32579 2.68728
head 4.53799 -0.926384 0.560868
rclavicle 5.2181e-015 -5.1684e-015
rhumerus -31.2156 -5.46759 -87.2215
rradius 27.9652
rwrist 2.3916
rhand -20.2386 -9.14327
rfingers 7.12502
rthumb 6.10942 -39.0352
lclavicle 5.2181e-015 -5.1684e-015
lhumerus -28.9299 5.56942 85.2598
lradius 24.0282
lwrist 16.7293
lhand -19.9041 23.5648
lfingers 7.12502
lthumb 6.43242 53.4472
rfemur -8.9043 3.10267 24.8213
rtibia 36.1957
rfoot -26.023 -13.9835
rtoes 8.6734
lfemur -0.527317 5.18628 -16.4809
ltibia 23.0135
lfoot -18.1984 4.57368
ltoes -7.36637
33
root -38.6075 16.946 -5.19163 -126.356 85.2189 -123.769
lowerback 0.560608 -0.810432 3.52057
upperback 4.16361 -1.07531 -0.00356673
thorax 3.91203 -0.384826 -2.00323
lowerneck -7.95959 -1.45901 0.765101
upperneck 10.7491 -2.31897 2.66451
head 4.55089 -0.923523 0.553025
rclavicle -1.14301e-015 3.97569e-016
rhumerus -31.2086 -5.43576 -87.2452
rradius 27.9944
rwrist 2.37663
rhand -20.2347 -9.1469
rfingers 7.12502
rthumb 6.11322 -39.0387
lclavicle -1.14301e-015 3.97569e-016
lhumerus -28.8964 5.53933 85.2754
lradius 24.0563
lwrist 16.7649
lhand -19.9065 23.6044
lfingers 7.12502
lthumb 6.43008 53.4868
rfemur -8.92929 3.12735 24.8267
rtibia 36.1988
rfoot -26.023 -13.9981
rtoes 8.69928
lfemur -0.56887 5.17595 -16.4842
ltibia 23.0463
lfoot -18.1564 4.5995
ltoes -7.47139
34
root -38.6108 16.9459 -5.19217 -126.198 85.2289 -123.611
lowerback 0.577317 -0.811336 3.51017
upperback 4.16533 -1.07547 -0.00638592
thorax 3.90443 -0.385281 -2.00007
lowerneck -7.98139 -1.45438 0.768809
upperneck 10.7708 -2.31196 2.64503
head 4.56085 -0.920615 0.546655
rclavicle 1.1281e-014 -4.37326e-015
rhumerus -31.2043 -5.404 -87.2677
rradius 28.0232
rwrist 2.36095
rhand -20.2342 -9.14836
rfingers 7.12502
rthumb 6.11374 -39.0401
lclavicle 1.1281e-014 -4.37326e-015
lhumerus -28.8655 5.50765 85.292
lradius 24.0863
lwrist 16.8033
lhand -19.9037 23.6383
lfingers 7.12502
lthumb 6.43282 53.5206
rfemur -8.94797 3.15315 24.8267
rtibia 36.2071
rfoot -26.0211 -14.0072
rtoes 8.71503
lfemur -0.595126 5.16796 -16.4927
ltibia 23.0707
lfoot -18.109 4.63534
ltoes -7.58978
35
root -38.614 16.9457 -5.1928 -126.064 85.2469 -123.475
lowerback 0.594333 -0.811164 3.49305
upperback 4.1687 -1.07402 -0.0106456
thorax 3.89853 -0.385071 -1.9946
lowerneck -7.99769 -1.44873 0.768501
upperneck 10.7857 -2.30318 2.62882
head 4.56787 -0.916974 0.542112
rclavicle -1.93815e-015 -2.78299e-015
rhumerus -31.1985 -5.37272 -87.2884
rradius 28.0478
rwrist 2.34611
rhand -20.2387 -9.13711
rfingers 7.12502
rthumb 6.10937 -39.029
lclavicle -1.93815e-015 -2.78299e-015
lhumerus -28.8351 5.47936 85.3098
lradius 24.1171
lwrist 16.8367
lhand -19.8984 23.6714
lfingers 7.12502
lthumb 6.43791 53.5535
rfemur -8.9649 3.17836 24.8174
rtibia 36.2204
rfoot -26.0229 -14.0095
rtoes 8.73607
lfemur -0.61211 5.16121 -16.5108
ltibia 23.0878
lfoot -18.0563 4.67654
ltoes -7.71873
36
root -38.617 16.9454 -5.19356 -125.888 85.2749 -123.29
lowerback 0.613459 -0.808287 3.47305
upperback 4.17483 -1.06873 -0.0169264
thorax 3.89454 -0.382905 -1.98949
lowerneck -8.01074 -1.44395 0.766364
upperneck 10.7954 -2.29523 2.61298
head 4.57278 -0.913928 0.537966
rclavicle -4.32357e-015 1.27222e-014
rhumerus -31.1916 -5.33912 -87.3091
rradius 28.0718
rwrist 2.32493
rhand -20.2453 -9.12053
rfingers 7.12502
rthumb 6.10296 -39.0126
lclavicle -4.32357e-015 1.27222e-014
lhumerus -28.8065 5.45424 85.328
lradius 24.1505
lwrist 16.8661
lhand -19.8956 23.7072
lfingers 7.12502
lthumb 6.44064 53.5892
rfemur -8.97671 3.20694 24.8006
rtibia 36.2371
rfoot -26.025 -14.0019
rtoes 8.7569
lfemur -0.617837 5.15903 -16.5355
ltibia 23.0992
lfoot -17.9961 4.72309
ltoes -7.86693
37
root -38.6202 16.9451 -5.19433 -125.711 85.304 -123.108
lowerback 0.635304 -0.806283 3.453
upperback 4.17785 -1.06451 -0.0237917
thorax 3.8857 -0.381421 -1.98493
lowerneck -8.01707 -1.43861 0.760358
upperneck 10.7993 -2.28637 2.60235
head 4.57487 -0.91042 0.536169
rclavicle -1.14301e-014 3.57812e-015
rhumerus -31.1858 -5.30395 -87.3302
rradius 28.0909
rwrist 2.30161
rhand -20.2558 -9.09913
rfingers 7.12502
rthumb 6.09288 -38.9915
lclavicle -1.14301e-014 3.57812e-015
lhumerus -28.7825 5.43295 85.3452
lradius 24.1856
lwrist 16.8915
lhand -19.8979 23.7595
lfingers 7.12502
lthumb 6.43841 53.6417
rfemur -8.99379 3.23583 24.7818
rtibia 36.2566
rfoot -26.0254 -13.9919
rtoes 8.7742
lfemur -0.624183 5.15787 -16.5621
ltibia 23.1066
lfoot -17.9333 4.7691
ltoes -8.01904
38
root -38.6236 16.9451 -5.19518 -125.568 85.3323 -122.962
lowerback 0.661516 -0.805316 3.43406
upperback 4.17633 -1.0615 -0.0321346
thorax 3.86953 -0.380714 -1.98244
lowerneck -8.01239 -1.43413 0.754152
upperneck 10.7962 -2.27851 2.59413
head 4.57299 -0.907453 0.535181
rclavicle -7.00716e-015 2.38542e-015
rhumerus -31.1847 -5.2719 -87.3509
rradius 28.1072
rwrist 2.27804
rhand -20.261 -9.09114
rfingers 7.12502
rthumb 6.08781 -38.9837
lclavicle -7.00716e-015 2.38542e-015
lhumerus -28.7681 5.41085 85.3616
lradius 24.2246
lwrist 16.9135
lhand -19.9059 23.8239
lfingers 7.12502
lthumb 6.43062 53.7063
rfemur -9.0153 3.27232 24.7624
rtibia 36.2779
rfoot -26.0277 -13.99
rtoes 8.79011
lfemur -0.632768 5.15941 -16.5896
ltibia 23.1109
lfoot -17.8666 4.80935
ltoes -8.16704
39
root -38.6272 16.9452 -5.19614 -125.441 85.3634 -122.836
lowerback 0.689261 -0.805219 3.41239
upperback 4.17187 -1.05956 -0.0414117
thorax 3.8494 -0.380761 -1.97937
lowerneck -8.04225 -1.415 0.782597
upperneck 10.81 -2.25263 2.55297
head 4.58119 -0.895755 0.519262
rclavicle 6.55989e-015 1.98785e-015
rhumerus -31.1839 -5.24671 -87.367
rradius 28.1136
rwrist 2.26572
rhand -20.257 -9.04767
rfingers 7.12502
rthumb 6.09168 -38.9401
lclavicle 6.55989e-015 1.98785e-015
lhumerus -28.7587 5.39079 85.3773
lradius 24.2652
lwrist 16.9356
lhand -19.9228 23.8998
lfingers 7.12502
lthumb 6.41438 53.7827
rfemur -9.04333 3.30366 24.7374
rtibia 36.3008
rfoot -26.0201 -13.9874
rtoes 8.78295
lfemur -0.646596 5.16679 -16.6201
ltibia 23.116
lfoot -17.7994 4.84293
ltoes -8.31715
40
root -38.631 16.9454 -5.19714 -125.349 85.3952 -122.748
lowerback 0.719431 -0.805709 3.38873
upperback 4.16342 -1.05829 -0.0522871
thorax 3.8237 -0.381371 -1.97678
lowerneck -8.09135 -1.38361 0.83303
upperneck 10.8352 -2.21207 2.49793
head 4.59561 -0.876481 0.496267
rclavicle 1.14301e-015 -5.56597e-015
rhumerus -31.1879 -5.23419 -87.3785
rradius 28.1128
rwrist 2.26742
rhand -20.2438 -8.98224
rfingers 7.12502
rthumb 6.10442 -38.8743
lclavicle 1.14301e-015 -5.56597e-015
lhumerus -28.7553 5.36783 85.3908
lradius 24.3048
lwrist 16.9592
lhand -19.9387 23.9773
lfingers 7.12502
lthumb 6.39896 53.8606
rfemur -9.07669 3.33251 24.7091
rtibia 36.3244
rfoot -26.0099 -13.9847
rtoes 8.77465
lfemur -0.666942 5.1782 -16.652
ltibia 23.1242
lfoot -17.7115 4.87505
ltoes -8.5433
